<svg width="46" height="24" viewBox="0 0 46 24" fill="none" xmlns="http://www.w3.org/2000/svg">
<path d="M11.375 18.85H13.5625V17.5375C14.6042 17.38 15.5 17.0387 16.25 16.5137C17 15.9887 17.375 15.21 17.375 14.1775C17.375 13.4425 17.125 12.7687 16.625 12.1562C16.125 11.5437 15.125 11.01 13.625 10.555C12.375 10.205 11.5104 9.89875 11.0312 9.63625C10.5521 9.37375 10.3125 9.015 10.3125 8.56C10.3125 8.105 10.5052 7.74625 10.8906 7.48375C11.276 7.22125 11.8333 7.09 12.5625 7.09C13.2292 7.09 13.75 7.22562 14.125 7.49687C14.5 7.76812 14.7708 8.105 14.9375 8.5075L16.9375 7.825C16.7083 7.2125 16.2865 6.67875 15.6719 6.22375C15.0573 5.76875 14.375 5.515 13.625 5.4625V4.15H11.4375V5.4625C10.3958 5.655 9.58333 6.04 9 6.6175C8.41667 7.195 8.125 7.8425 8.125 8.56C8.125 9.3825 8.41146 10.0475 8.98438 10.555C9.55729 11.0625 10.4583 11.5 11.6875 11.8675C13 12.27 13.9115 12.6287 14.4219 12.9437C14.9323 13.2587 15.1875 13.67 15.1875 14.1775C15.1875 14.755 14.9427 15.1794 14.4531 15.4506C13.9635 15.7219 13.375 15.8575 12.6875 15.8575C12 15.8575 11.3906 15.6781 10.8594 15.3194C10.3281 14.9606 9.9375 14.4225 9.6875 13.705L7.625 14.3875C7.91667 15.2275 8.36979 15.9056 8.98438 16.4219C9.59896 16.9381 10.3958 17.2925 11.375 17.485V18.85ZM12.5 22C10.7708 22 9.14583 21.7244 7.625 21.1731C6.10417 20.6219 4.78125 19.8737 3.65625 18.9287C2.53125 17.9837 1.64063 16.8725 0.984375 15.595C0.328125 14.3175 0 12.9525 0 11.5C0 10.0475 0.328125 8.6825 0.984375 7.405C1.64063 6.1275 2.53125 5.01625 3.65625 4.07125C4.78125 3.12625 6.10417 2.37812 7.625 1.82687C9.14583 1.27562 10.7708 1 12.5 1C14.2292 1 15.8542 1.27562 17.375 1.82687C18.8958 2.37812 20.2188 3.12625 21.3438 4.07125C22.4688 5.01625 23.3594 6.1275 24.0156 7.405C24.6719 8.6825 25 10.0475 25 11.5C25 12.9525 24.6719 14.3175 24.0156 15.595C23.3594 16.8725 22.4688 17.9837 21.3438 18.9287C20.2188 19.8737 18.8958 20.6219 17.375 21.1731C15.8542 21.7244 14.2292 22 12.5 22Z" fill="white"/>
<path d="M41.6911 4.45455V19H39.4893V6.65625H39.4041L35.924 8.92898V6.8267L39.5533 4.45455H41.6911Z" fill="white"/>
</svg>
