<svg width="25" height="21" viewBox="0 0 25 21" fill="none" xmlns="http://www.w3.org/2000/svg">
<path d="M11.375 17.85H13.5625V16.5375C14.6042 16.38 15.5 16.0388 16.25 15.5138C17 14.9888 17.375 14.21 17.375 13.1775C17.375 12.4425 17.125 11.7687 16.625 11.1562C16.125 10.5437 15.125 10.01 13.625 9.555C12.375 9.205 11.5104 8.89875 11.0312 8.63625C10.5521 8.37375 10.3125 8.015 10.3125 7.56C10.3125 7.105 10.5052 6.74625 10.8906 6.48375C11.276 6.22125 11.8333 6.09 12.5625 6.09C13.2292 6.09 13.75 6.22562 14.125 6.49687C14.5 6.76812 14.7708 7.105 14.9375 7.5075L16.9375 6.825C16.7083 6.2125 16.2865 5.67875 15.6719 5.22375C15.0573 4.76875 14.375 4.515 13.625 4.4625V3.15H11.4375V4.4625C10.3958 4.655 9.58333 5.04 9 5.6175C8.41667 6.195 8.125 6.8425 8.125 7.56C8.125 8.3825 8.41146 9.0475 8.98438 9.555C9.55729 10.0625 10.4583 10.5 11.6875 10.8675C13 11.27 13.9115 11.6287 14.4219 11.9437C14.9323 12.2587 15.1875 12.67 15.1875 13.1775C15.1875 13.755 14.9427 14.1794 14.4531 14.4506C13.9635 14.7219 13.375 14.8575 12.6875 14.8575C12 14.8575 11.3906 14.6781 10.8594 14.3194C10.3281 13.9606 9.9375 13.4225 9.6875 12.705L7.625 13.3875C7.91667 14.2275 8.36979 14.9056 8.98438 15.4219C9.59896 15.9381 10.3958 16.2925 11.375 16.485V17.85ZM12.5 21C10.7708 21 9.14583 20.7244 7.625 20.1731C6.10417 19.6219 4.78125 18.8737 3.65625 17.9287C2.53125 16.9837 1.64063 15.8725 0.984375 14.595C0.328125 13.3175 0 11.9525 0 10.5C0 9.0475 0.328125 7.6825 0.984375 6.405C1.64063 5.1275 2.53125 4.01625 3.65625 3.07125C4.78125 2.12625 6.10417 1.37813 7.625 0.826875C9.14583 0.275625 10.7708 0 12.5 0C14.2292 0 15.8542 0.275625 17.375 0.826875C18.8958 1.37813 20.2188 2.12625 21.3438 3.07125C22.4688 4.01625 23.3594 5.1275 24.0156 6.405C24.6719 7.6825 25 9.0475 25 10.5C25 11.9525 24.6719 13.3175 24.0156 14.595C23.3594 15.8725 22.4688 16.9837 21.3438 17.9287C20.2188 18.8737 18.8958 19.6219 17.375 20.1731C15.8542 20.7244 14.2292 21 12.5 21Z" fill="white"/>
</svg>
